<svg xmlns="http://www.w3.org/2000/svg" width="32" height="32" viewBox="0 0 32 32" fill="none">
  <rect width="32" height="32" rx="8" fill="#4F46E5"/>
  <path d="M10 8C8.89543 8 8 8.89543 8 10V22C8 23.1046 8.89543 24 10 24H22C23.1046 24 24 23.1046 24 22V10C24 8.89543 23.1046 8 22 8H10ZM11 12C11 11.4477 11.4477 11 12 11H20C20.5523 11 21 11.4477 21 12C21 12.5523 20.5523 13 20 13H12C11.4477 13 11 12.5523 11 12ZM11 16C11 15.4477 11.4477 15 12 15H20C20.5523 15 21 15.4477 21 16C21 16.5523 20.5523 17 20 17H12C11.4477 17 11 16.5523 11 16ZM11 20C11 19.4477 11.4477 19 12 19H16C16.5523 19 17 19.4477 17 20C17 20.5523 16.5523 21 16 21H12C11.4477 21 11 20.5523 11 20Z" fill="white"/>
</svg>